# xmcd
#
# Track frame offsets: 
#        150
#        11934
#        22222
#        37028
#        50054
#        62404
#        78481
#        89150
#        101330
#        114475
#
# Disc length: 1672 seconds
#
# Revision: 0
# Processed by: cddbd v1.5.2PL0 Copyright (c) Steve Scherf et al.
# Submitted via: ExactAudioCopyFreeDBPlugin 1.0
#
DISCID=8706860a
DTITLE=Various Artist - Country Legends
DYEAR=2009
DGENRE=Country
TTITLE0=Patsy Cline - Walking After Midnight
TTITLE1=Faron Young - Hello Walls
TTITLE2=Porter Wagoner - Cold Hard facts of Life
TTITLE3=Kenny Rogers - Ruby, Don't Take Your Love To Town
TTITLE4=Johnny Paycheck - Take This Job and Shove It
TTITLE5=Juice Newton - Hurt
TTITLE6=Ferlin Husky - Wings of a Dove (LIve)
TTITLE7=Merle Haggard - Okie from Muskogee
TTITLE8=Jack Greene - Statue of a Fool
TTITLE9=Mickey Gilley - That's All That Matters (Live)
EXTD=
EXTT0=
EXTT1=
EXTT2=
EXTT3=
EXTT4=
EXTT5=
EXTT6=
EXTT7=
EXTT8=
EXTT9=
PLAYORDER=
